<svg xmlns="http://www.w3.org/2000/svg" viewBox="0 0 900 680"><defs><linearGradient id="w" x1="0" y1="0" x2="1" y2="1"><stop stop-color="#dfbd91"/><stop offset="1" stop-color="#9d6d45"/></linearGradient><linearGradient id="d" x1="0" y1="0" x2="0" y2="1"><stop stop-color="#283234"/><stop offset="1" stop-color="#11191b"/></linearGradient></defs><rect width="900" height="680" fill="url(#d)"/><g opacity=".95"><rect x="70" y="65" width="65" height="520" fill="url(#w)"/><rect x="155" y="65" width="65" height="520" fill="url(#w)"/><rect x="240" y="65" width="65" height="520" fill="url(#w)"/><rect x="325" y="65" width="65" height="520" fill="url(#w)"/><rect x="410" y="65" width="65" height="520" fill="url(#w)"/><rect x="495" y="65" width="65" height="520" fill="url(#w)"/><rect x="580" y="65" width="65" height="520" fill="url(#w)"/></g><rect x="120" y="385" width="510" height="72" rx="5" fill="#d4aa78"/><rect x="180" y="300" width="450" height="58" rx="5" fill="#e3c093"/><rect x="650" y="395" width="135" height="180" rx="12" fill="#232b2d"/><ellipse cx="717" cy="395" rx="67" ry="22" fill="#353d3f"/><g fill="#5a6062"><ellipse cx="680" cy="390" rx="25" ry="14"/><ellipse cx="720" cy="382" rx="28" ry="16"/><ellipse cx="754" cy="394" rx="25" ry="14"/></g><path d="M685 325c-25-40 27-57 5-96M725 320c-20-43 31-62 9-103M762 327c-17-35 27-52 11-86" fill="none" stroke="#ead7c0" stroke-width="8" opacity=".65" stroke-linecap="round"/><rect y="500" width="900" height="180" fill="#0c1213" opacity=".28"/></svg>